<mxfile host="app.diagrams.net" modified="2020-11-22T07:38:17.353Z" agent="5.0 (Windows)" etag="Uu6gAaf3-V2Sw9DyftFa" version="13.10.0" type="github">
  <diagram id="C5RBs43oDa-KdzZeNtuy" name="Page-1">
    <mxGraphModel dx="3175" dy="2111" grid="1" gridSize="10" guides="1" tooltips="1" connect="1" arrows="1" fold="1" page="1" pageScale="1" pageWidth="827" pageHeight="1169" math="0" shadow="0">
      <root>
        <mxCell id="WIyWlLk6GJQsqaUBKTNV-0" />
        <mxCell id="WIyWlLk6GJQsqaUBKTNV-1" parent="WIyWlLk6GJQsqaUBKTNV-0" />
        <mxCell id="zkfFHV4jXpPFQw0GAbJ--0" value="_ID" style="swimlane;fontStyle=2;align=center;verticalAlign=top;childLayout=stackLayout;horizontal=1;startSize=26;horizontalStack=0;resizeParent=1;resizeLast=0;collapsible=1;marginBottom=0;rounded=0;shadow=0;strokeWidth=1;" parent="WIyWlLk6GJQsqaUBKTNV-1" vertex="1">
          <mxGeometry x="-100" y="-520" width="160" height="110" as="geometry">
            <mxRectangle x="230" y="140" width="160" height="26" as="alternateBounds" />
          </mxGeometry>
        </mxCell>
        <mxCell id="zkfFHV4jXpPFQw0GAbJ--2" value="_id" style="text;align=left;verticalAlign=top;spacingLeft=4;spacingRight=4;overflow=hidden;rotatable=0;points=[[0,0.5],[1,0.5]];portConstraint=eastwest;rounded=0;shadow=0;html=0;" parent="zkfFHV4jXpPFQw0GAbJ--0" vertex="1">
          <mxGeometry y="26" width="160" height="26" as="geometry" />
        </mxCell>
        <mxCell id="zkfFHV4jXpPFQw0GAbJ--3" value="_curr_ID" style="text;align=left;verticalAlign=top;spacingLeft=4;spacingRight=4;overflow=hidden;rotatable=0;points=[[0,0.5],[1,0.5]];portConstraint=eastwest;rounded=0;shadow=0;html=0;" parent="zkfFHV4jXpPFQw0GAbJ--0" vertex="1">
          <mxGeometry y="52" width="160" height="26" as="geometry" />
        </mxCell>
        <mxCell id="Qb9tFj-eZxgiYMaZ9Jdv-4" value="_id_mutex" style="text;align=left;verticalAlign=top;spacingLeft=4;spacingRight=4;overflow=hidden;rotatable=0;points=[[0,0.5],[1,0.5]];portConstraint=eastwest;rounded=0;shadow=0;html=0;" parent="zkfFHV4jXpPFQw0GAbJ--0" vertex="1">
          <mxGeometry y="78" width="160" height="32" as="geometry" />
        </mxCell>
        <mxCell id="zkfFHV4jXpPFQw0GAbJ--6" value="Entity" style="swimlane;fontStyle=0;align=center;verticalAlign=top;childLayout=stackLayout;horizontal=1;startSize=26;horizontalStack=0;resizeParent=1;resizeLast=0;collapsible=1;marginBottom=0;rounded=0;shadow=0;strokeWidth=1;fillColor=#fff2cc;strokeColor=#d6b656;" parent="WIyWlLk6GJQsqaUBKTNV-1" vertex="1">
          <mxGeometry x="100" y="-310" width="160" height="230" as="geometry">
            <mxRectangle x="130" y="380" width="160" height="26" as="alternateBounds" />
          </mxGeometry>
        </mxCell>
        <mxCell id="zkfFHV4jXpPFQw0GAbJ--7" value="type" style="text;align=left;verticalAlign=top;spacingLeft=4;spacingRight=4;overflow=hidden;rotatable=0;points=[[0,0.5],[1,0.5]];portConstraint=eastwest;" parent="zkfFHV4jXpPFQw0GAbJ--6" vertex="1">
          <mxGeometry y="26" width="160" height="26" as="geometry" />
        </mxCell>
        <mxCell id="zkfFHV4jXpPFQw0GAbJ--8" value="supported_Operations" style="text;align=left;verticalAlign=top;spacingLeft=4;spacingRight=4;overflow=hidden;rotatable=0;points=[[0,0.5],[1,0.5]];portConstraint=eastwest;rounded=0;shadow=0;html=0;" parent="zkfFHV4jXpPFQw0GAbJ--6" vertex="1">
          <mxGeometry y="52" width="160" height="26" as="geometry" />
        </mxCell>
        <mxCell id="zkfFHV4jXpPFQw0GAbJ--9" value="" style="line;html=1;strokeWidth=1;align=left;verticalAlign=middle;spacingTop=-1;spacingLeft=3;spacingRight=3;rotatable=0;labelPosition=right;points=[];portConstraint=eastwest;" parent="zkfFHV4jXpPFQw0GAbJ--6" vertex="1">
          <mxGeometry y="78" width="160" height="8" as="geometry" />
        </mxCell>
        <mxCell id="zkfFHV4jXpPFQw0GAbJ--11" value="getEntityId&#xa;getPos&#xa;_Action1&#xa;_Action2&#xa;getUniqProp&#xa;simulateExistence" style="text;align=left;verticalAlign=top;spacingLeft=4;spacingRight=4;overflow=hidden;rotatable=0;points=[[0,0.5],[1,0.5]];portConstraint=eastwest;" parent="zkfFHV4jXpPFQw0GAbJ--6" vertex="1">
          <mxGeometry y="86" width="160" height="104" as="geometry" />
        </mxCell>
        <mxCell id="Qb9tFj-eZxgiYMaZ9Jdv-5" value="" style="line;html=1;strokeWidth=1;align=left;verticalAlign=middle;spacingTop=-1;spacingLeft=3;spacingRight=3;rotatable=0;labelPosition=right;points=[];portConstraint=eastwest;" parent="zkfFHV4jXpPFQw0GAbJ--6" vertex="1">
          <mxGeometry y="190" width="160" height="8" as="geometry" />
        </mxCell>
        <mxCell id="Qb9tFj-eZxgiYMaZ9Jdv-6" value="(entity_Types)" style="text;html=1;align=center;verticalAlign=middle;resizable=0;points=[];autosize=1;" parent="zkfFHV4jXpPFQw0GAbJ--6" vertex="1">
          <mxGeometry y="198" width="160" height="20" as="geometry" />
        </mxCell>
        <mxCell id="zkfFHV4jXpPFQw0GAbJ--12" value="" style="endArrow=block;endSize=10;endFill=0;shadow=0;strokeWidth=1;rounded=0;edgeStyle=elbowEdgeStyle;elbow=vertical;" parent="WIyWlLk6GJQsqaUBKTNV-1" source="zkfFHV4jXpPFQw0GAbJ--6" target="zkfFHV4jXpPFQw0GAbJ--0" edge="1">
          <mxGeometry width="160" relative="1" as="geometry">
            <mxPoint x="200" y="203" as="sourcePoint" />
            <mxPoint x="200" y="203" as="targetPoint" />
          </mxGeometry>
        </mxCell>
        <mxCell id="Qb9tFj-eZxgiYMaZ9Jdv-8" value="SnakeProp" style="swimlane;fontStyle=0;align=center;verticalAlign=top;childLayout=stackLayout;horizontal=1;startSize=26;horizontalStack=0;resizeParent=1;resizeLast=0;collapsible=1;marginBottom=0;rounded=0;shadow=0;strokeWidth=1;fillColor=#d5e8d4;strokeColor=#82b366;" parent="WIyWlLk6GJQsqaUBKTNV-1" vertex="1">
          <mxGeometry x="390" y="559" width="160" height="21" as="geometry">
            <mxRectangle x="340" y="380" width="170" height="26" as="alternateBounds" />
          </mxGeometry>
        </mxCell>
        <mxCell id="Qb9tFj-eZxgiYMaZ9Jdv-11" value="_shared_concurrent_data" style="swimlane;fontStyle=0;align=center;verticalAlign=top;childLayout=stackLayout;horizontal=1;startSize=26;horizontalStack=0;resizeParent=1;resizeLast=0;collapsible=1;marginBottom=0;rounded=0;shadow=0;strokeWidth=1;fillColor=#d5e8d4;strokeColor=#82b366;" parent="WIyWlLk6GJQsqaUBKTNV-1" vertex="1">
          <mxGeometry x="-580" y="290" width="160" height="100" as="geometry">
            <mxRectangle x="340" y="380" width="170" height="26" as="alternateBounds" />
          </mxGeometry>
        </mxCell>
        <mxCell id="Qb9tFj-eZxgiYMaZ9Jdv-31" value="_world_runnning&#xa;" style="text;align=left;verticalAlign=top;spacingLeft=4;spacingRight=4;overflow=hidden;rotatable=0;points=[[0,0.5],[1,0.5]];portConstraint=eastwest;" parent="Qb9tFj-eZxgiYMaZ9Jdv-11" vertex="1">
          <mxGeometry y="26" width="160" height="26" as="geometry" />
        </mxCell>
        <mxCell id="Qb9tFj-eZxgiYMaZ9Jdv-32" value="" style="line;html=1;strokeWidth=1;align=left;verticalAlign=middle;spacingTop=-1;spacingLeft=3;spacingRight=3;rotatable=0;labelPosition=right;points=[];portConstraint=eastwest;" parent="Qb9tFj-eZxgiYMaZ9Jdv-11" vertex="1">
          <mxGeometry y="52" width="160" height="8" as="geometry" />
        </mxCell>
        <mxCell id="Qb9tFj-eZxgiYMaZ9Jdv-33" value="&lt;div align=&quot;left&quot;&gt;is_world_running&lt;/div&gt;get_world_thread_id" style="text;html=1;align=left;verticalAlign=middle;resizable=0;points=[];autosize=1;movable=1;rotatable=1;deletable=1;editable=1;connectable=1;" parent="Qb9tFj-eZxgiYMaZ9Jdv-11" vertex="1">
          <mxGeometry y="60" width="160" height="30" as="geometry" />
        </mxCell>
        <mxCell id="Qb9tFj-eZxgiYMaZ9Jdv-16" value="entityTypes" style="swimlane;fontStyle=0;align=center;verticalAlign=top;childLayout=stackLayout;horizontal=1;startSize=26;horizontalStack=0;resizeParent=1;resizeLast=0;collapsible=1;marginBottom=0;rounded=0;shadow=0;strokeWidth=1;fillColor=#f5f5f5;strokeColor=#666666;fontColor=#333333;" parent="WIyWlLk6GJQsqaUBKTNV-1" vertex="1">
          <mxGeometry x="270" y="630" width="160" height="52" as="geometry">
            <mxRectangle x="340" y="380" width="170" height="26" as="alternateBounds" />
          </mxGeometry>
        </mxCell>
        <mxCell id="Qb9tFj-eZxgiYMaZ9Jdv-17" value="SNAKE" style="text;align=left;verticalAlign=top;spacingLeft=4;spacingRight=4;overflow=hidden;rotatable=0;points=[[0,0.5],[1,0.5]];portConstraint=eastwest;" parent="Qb9tFj-eZxgiYMaZ9Jdv-16" vertex="1">
          <mxGeometry y="26" width="160" height="26" as="geometry" />
        </mxCell>
        <mxCell id="Qb9tFj-eZxgiYMaZ9Jdv-18" style="edgeStyle=orthogonalEdgeStyle;rounded=0;orthogonalLoop=1;jettySize=auto;html=1;exitX=1;exitY=0.5;exitDx=0;exitDy=0;entryX=0.5;entryY=0;entryDx=0;entryDy=0;" parent="WIyWlLk6GJQsqaUBKTNV-1" source="zkfFHV4jXpPFQw0GAbJ--11" target="Qb9tFj-eZxgiYMaZ9Jdv-16" edge="1">
          <mxGeometry relative="1" as="geometry" />
        </mxCell>
        <mxCell id="Qb9tFj-eZxgiYMaZ9Jdv-69" style="edgeStyle=orthogonalEdgeStyle;rounded=0;orthogonalLoop=1;jettySize=auto;html=1;entryX=0.5;entryY=0;entryDx=0;entryDy=0;" parent="WIyWlLk6GJQsqaUBKTNV-1" source="Qb9tFj-eZxgiYMaZ9Jdv-19" target="Qb9tFj-eZxgiYMaZ9Jdv-58" edge="1">
          <mxGeometry relative="1" as="geometry" />
        </mxCell>
        <mxCell id="Qb9tFj-eZxgiYMaZ9Jdv-19" value="World" style="swimlane;fontStyle=0;align=center;verticalAlign=top;childLayout=stackLayout;horizontal=1;startSize=26;horizontalStack=0;resizeParent=1;resizeLast=0;collapsible=1;marginBottom=0;rounded=0;shadow=0;strokeWidth=1;fillColor=#fff2cc;strokeColor=#d6b656;" parent="WIyWlLk6GJQsqaUBKTNV-1" vertex="1">
          <mxGeometry x="-200" y="280" width="160" height="378" as="geometry">
            <mxRectangle x="130" y="380" width="160" height="26" as="alternateBounds" />
          </mxGeometry>
        </mxCell>
        <mxCell id="Qb9tFj-eZxgiYMaZ9Jdv-21" value="currentTime&#xa;_MAX_NumSnakes&#xa;_init_SnakeLength&#xa;_shared_concurrent_data&#xa;entity_threads&#xa;simulationRunning&#xa;__world_mutex&#xa;_WorldDimen&#xa;_curr_BOUND&#xa;world_plot&#xa;snakes" style="text;align=left;verticalAlign=top;spacingLeft=4;spacingRight=4;overflow=hidden;rotatable=0;points=[[0,0.5],[1,0.5]];portConstraint=eastwest;rounded=0;shadow=0;html=0;" parent="Qb9tFj-eZxgiYMaZ9Jdv-19" vertex="1">
          <mxGeometry y="26" width="160" height="164" as="geometry" />
        </mxCell>
        <mxCell id="Qb9tFj-eZxgiYMaZ9Jdv-22" value="" style="line;html=1;strokeWidth=1;align=left;verticalAlign=middle;spacingTop=-1;spacingLeft=3;spacingRight=3;rotatable=0;labelPosition=right;points=[];portConstraint=eastwest;" parent="Qb9tFj-eZxgiYMaZ9Jdv-19" vertex="1">
          <mxGeometry y="190" width="160" height="8" as="geometry" />
        </mxCell>
        <mxCell id="Qb9tFj-eZxgiYMaZ9Jdv-23" value="get_food_coords&#xa;ateFood&#xa;get_curr_bound&#xa;isCellEmpty&#xa;isPathClear&#xa;getShortestPathToFood&#xa;get_box&#xa;_RangeCheck&#xa;runNextUnitTime&#xa;" style="text;align=left;verticalAlign=top;spacingLeft=4;spacingRight=4;overflow=hidden;rotatable=0;points=[[0,0.5],[1,0.5]];portConstraint=eastwest;fontStyle=0" parent="Qb9tFj-eZxgiYMaZ9Jdv-19" vertex="1">
          <mxGeometry y="198" width="160" height="142" as="geometry" />
        </mxCell>
        <mxCell id="Qb9tFj-eZxgiYMaZ9Jdv-24" value="" style="line;html=1;strokeWidth=1;align=left;verticalAlign=middle;spacingTop=-1;spacingLeft=3;spacingRight=3;rotatable=0;labelPosition=right;points=[];portConstraint=eastwest;" parent="Qb9tFj-eZxgiYMaZ9Jdv-19" vertex="1">
          <mxGeometry y="340" width="160" height="8" as="geometry" />
        </mxCell>
        <mxCell id="Qb9tFj-eZxgiYMaZ9Jdv-25" value="&lt;div&gt;()&lt;/div&gt;(World_Ptr, _timePoint)" style="text;html=1;align=center;verticalAlign=middle;resizable=0;points=[];autosize=1;" parent="Qb9tFj-eZxgiYMaZ9Jdv-19" vertex="1">
          <mxGeometry y="348" width="160" height="30" as="geometry" />
        </mxCell>
        <mxCell id="Qb9tFj-eZxgiYMaZ9Jdv-26" style="edgeStyle=orthogonalEdgeStyle;rounded=0;orthogonalLoop=1;jettySize=auto;html=1;entryX=1.013;entryY=0.385;entryDx=0;entryDy=0;entryPerimeter=0;" parent="WIyWlLk6GJQsqaUBKTNV-1" source="Qb9tFj-eZxgiYMaZ9Jdv-27" target="Qb9tFj-eZxgiYMaZ9Jdv-23" edge="1">
          <mxGeometry relative="1" as="geometry" />
        </mxCell>
        <mxCell id="Qb9tFj-eZxgiYMaZ9Jdv-27" value="&lt;div&gt;friend&lt;/div&gt;" style="text;html=1;align=center;verticalAlign=middle;resizable=0;points=[];autosize=1;" parent="WIyWlLk6GJQsqaUBKTNV-1" vertex="1">
          <mxGeometry x="40" y="539" width="50" height="20" as="geometry" />
        </mxCell>
        <mxCell id="Qb9tFj-eZxgiYMaZ9Jdv-28" style="edgeStyle=orthogonalEdgeStyle;rounded=0;orthogonalLoop=1;jettySize=auto;html=1;entryX=1.013;entryY=0.385;entryDx=0;entryDy=0;entryPerimeter=0;" parent="WIyWlLk6GJQsqaUBKTNV-1" source="zkfFHV4jXpPFQw0GAbJ--11" target="Qb9tFj-eZxgiYMaZ9Jdv-27" edge="1">
          <mxGeometry relative="1" as="geometry">
            <mxPoint x="120" y="498" as="sourcePoint" />
            <mxPoint x="42.07999999999993" y="616.04" as="targetPoint" />
          </mxGeometry>
        </mxCell>
        <mxCell id="Qb9tFj-eZxgiYMaZ9Jdv-29" value="Prop" style="swimlane;fontStyle=0;align=center;verticalAlign=top;childLayout=stackLayout;horizontal=1;startSize=26;horizontalStack=0;resizeParent=1;resizeLast=0;collapsible=1;marginBottom=0;rounded=0;shadow=0;strokeWidth=1;fillColor=#d5e8d4;strokeColor=#82b366;" parent="WIyWlLk6GJQsqaUBKTNV-1" vertex="1">
          <mxGeometry x="400" y="470" width="160" height="52" as="geometry">
            <mxRectangle x="340" y="380" width="170" height="26" as="alternateBounds" />
          </mxGeometry>
        </mxCell>
        <mxCell id="Qb9tFj-eZxgiYMaZ9Jdv-30" value="data" style="text;align=left;verticalAlign=top;spacingLeft=4;spacingRight=4;overflow=hidden;rotatable=0;points=[[0,0.5],[1,0.5]];portConstraint=eastwest;" parent="Qb9tFj-eZxgiYMaZ9Jdv-29" vertex="1">
          <mxGeometry y="26" width="160" height="26" as="geometry" />
        </mxCell>
        <mxCell id="Qb9tFj-eZxgiYMaZ9Jdv-34" style="edgeStyle=orthogonalEdgeStyle;rounded=0;orthogonalLoop=1;jettySize=auto;html=1;entryX=0.5;entryY=0;entryDx=0;entryDy=0;" parent="WIyWlLk6GJQsqaUBKTNV-1" source="Qb9tFj-eZxgiYMaZ9Jdv-21" target="Qb9tFj-eZxgiYMaZ9Jdv-11" edge="1">
          <mxGeometry relative="1" as="geometry">
            <Array as="points">
              <mxPoint x="-380" y="400" />
              <mxPoint x="-380" y="270" />
              <mxPoint x="-500" y="270" />
            </Array>
          </mxGeometry>
        </mxCell>
        <mxCell id="Qb9tFj-eZxgiYMaZ9Jdv-38" value="T" style="swimlane;fontStyle=0;align=center;verticalAlign=top;childLayout=stackLayout;horizontal=1;startSize=26;horizontalStack=0;resizeParent=1;resizeLast=0;collapsible=1;marginBottom=0;rounded=0;shadow=0;strokeWidth=1;fillColor=#fff2cc;strokeColor=#d6b656;" parent="WIyWlLk6GJQsqaUBKTNV-1" vertex="1">
          <mxGeometry x="-1880" y="920" width="160" height="250" as="geometry">
            <mxRectangle x="130" y="380" width="160" height="26" as="alternateBounds" />
          </mxGeometry>
        </mxCell>
        <mxCell id="Qb9tFj-eZxgiYMaZ9Jdv-39" value="var" style="text;align=left;verticalAlign=top;spacingLeft=4;spacingRight=4;overflow=hidden;rotatable=0;points=[[0,0.5],[1,0.5]];portConstraint=eastwest;rounded=0;shadow=0;html=0;" parent="Qb9tFj-eZxgiYMaZ9Jdv-38" vertex="1">
          <mxGeometry y="26" width="160" height="74" as="geometry" />
        </mxCell>
        <mxCell id="Qb9tFj-eZxgiYMaZ9Jdv-40" value="" style="line;html=1;strokeWidth=1;align=left;verticalAlign=middle;spacingTop=-1;spacingLeft=3;spacingRight=3;rotatable=0;labelPosition=right;points=[];portConstraint=eastwest;" parent="Qb9tFj-eZxgiYMaZ9Jdv-38" vertex="1">
          <mxGeometry y="100" width="160" height="8" as="geometry" />
        </mxCell>
        <mxCell id="Qb9tFj-eZxgiYMaZ9Jdv-41" value="func" style="text;align=left;verticalAlign=top;spacingLeft=4;spacingRight=4;overflow=hidden;rotatable=0;points=[[0,0.5],[1,0.5]];portConstraint=eastwest;fontStyle=0" parent="Qb9tFj-eZxgiYMaZ9Jdv-38" vertex="1">
          <mxGeometry y="108" width="160" height="90" as="geometry" />
        </mxCell>
        <mxCell id="Qb9tFj-eZxgiYMaZ9Jdv-42" value="" style="line;html=1;strokeWidth=1;align=left;verticalAlign=middle;spacingTop=-1;spacingLeft=3;spacingRight=3;rotatable=0;labelPosition=right;points=[];portConstraint=eastwest;" parent="Qb9tFj-eZxgiYMaZ9Jdv-38" vertex="1">
          <mxGeometry y="198" width="160" height="8" as="geometry" />
        </mxCell>
        <mxCell id="Qb9tFj-eZxgiYMaZ9Jdv-43" value="()" style="text;html=1;align=center;verticalAlign=middle;resizable=0;points=[];autosize=1;" parent="Qb9tFj-eZxgiYMaZ9Jdv-38" vertex="1">
          <mxGeometry y="206" width="160" height="20" as="geometry" />
        </mxCell>
        <mxCell id="Qb9tFj-eZxgiYMaZ9Jdv-93" style="edgeStyle=orthogonalEdgeStyle;rounded=0;orthogonalLoop=1;jettySize=auto;html=1;entryX=0;entryY=0;entryDx=0;entryDy=0;" parent="WIyWlLk6GJQsqaUBKTNV-1" source="Qb9tFj-eZxgiYMaZ9Jdv-44" target="Qb9tFj-eZxgiYMaZ9Jdv-19" edge="1">
          <mxGeometry relative="1" as="geometry" />
        </mxCell>
        <mxCell id="Qb9tFj-eZxgiYMaZ9Jdv-44" value="WorldPlot" style="swimlane;fontStyle=0;align=center;verticalAlign=top;childLayout=stackLayout;horizontal=1;startSize=26;horizontalStack=0;resizeParent=1;resizeLast=0;collapsible=1;marginBottom=0;rounded=0;shadow=0;strokeWidth=1;fillColor=#fff2cc;strokeColor=#d6b656;" parent="WIyWlLk6GJQsqaUBKTNV-1" vertex="1">
          <mxGeometry x="-320" y="1150" width="160" height="288" as="geometry">
            <mxRectangle x="130" y="380" width="160" height="26" as="alternateBounds" />
          </mxGeometry>
        </mxCell>
        <mxCell id="Qb9tFj-eZxgiYMaZ9Jdv-45" value="parent_worldfood&#xa;food&#xa;__temp&#xa;" style="text;align=left;verticalAlign=top;spacingLeft=4;spacingRight=4;overflow=hidden;rotatable=0;points=[[0,0.5],[1,0.5]];portConstraint=eastwest;rounded=0;shadow=0;html=0;" parent="Qb9tFj-eZxgiYMaZ9Jdv-44" vertex="1">
          <mxGeometry y="26" width="160" height="64" as="geometry" />
        </mxCell>
        <mxCell id="Qb9tFj-eZxgiYMaZ9Jdv-46" value="" style="line;html=1;strokeWidth=1;align=left;verticalAlign=middle;spacingTop=-1;spacingLeft=3;spacingRight=3;rotatable=0;labelPosition=right;points=[];portConstraint=eastwest;" parent="Qb9tFj-eZxgiYMaZ9Jdv-44" vertex="1">
          <mxGeometry y="90" width="160" height="8" as="geometry" />
        </mxCell>
        <mxCell id="Qb9tFj-eZxgiYMaZ9Jdv-47" value="auto_expand&#xa;__expand_n_units&#xa;get_box&#xa;get_food&#xa;createFood&#xa;getCurrentOrder&#xa;isPathClear&#xa;getShortestPathToFood&#xa;start_auto_expansion&#xa;getFreeSpace" style="text;align=left;verticalAlign=top;spacingLeft=4;spacingRight=4;overflow=hidden;rotatable=0;points=[[0,0.5],[1,0.5]];portConstraint=eastwest;fontStyle=0" parent="Qb9tFj-eZxgiYMaZ9Jdv-44" vertex="1">
          <mxGeometry y="98" width="160" height="152" as="geometry" />
        </mxCell>
        <mxCell id="Qb9tFj-eZxgiYMaZ9Jdv-48" value="" style="line;html=1;strokeWidth=1;align=left;verticalAlign=middle;spacingTop=-1;spacingLeft=3;spacingRight=3;rotatable=0;labelPosition=right;points=[];portConstraint=eastwest;" parent="Qb9tFj-eZxgiYMaZ9Jdv-44" vertex="1">
          <mxGeometry y="250" width="160" height="8" as="geometry" />
        </mxCell>
        <mxCell id="Qb9tFj-eZxgiYMaZ9Jdv-49" value="(World_Ptr)" style="text;html=1;align=center;verticalAlign=middle;resizable=0;points=[];autosize=1;" parent="Qb9tFj-eZxgiYMaZ9Jdv-44" vertex="1">
          <mxGeometry y="258" width="160" height="20" as="geometry" />
        </mxCell>
        <mxCell id="Qb9tFj-eZxgiYMaZ9Jdv-50" style="edgeStyle=orthogonalEdgeStyle;rounded=0;orthogonalLoop=1;jettySize=auto;html=1;" parent="WIyWlLk6GJQsqaUBKTNV-1" source="Qb9tFj-eZxgiYMaZ9Jdv-21" edge="1">
          <mxGeometry relative="1" as="geometry">
            <mxPoint x="-220" y="1150" as="targetPoint" />
            <Array as="points">
              <mxPoint x="-220" y="388" />
              <mxPoint x="-220" y="1150" />
            </Array>
          </mxGeometry>
        </mxCell>
        <mxCell id="Qb9tFj-eZxgiYMaZ9Jdv-83" style="edgeStyle=orthogonalEdgeStyle;rounded=0;orthogonalLoop=1;jettySize=auto;html=1;entryX=0.56;entryY=0.001;entryDx=0;entryDy=0;entryPerimeter=0;" parent="WIyWlLk6GJQsqaUBKTNV-1" source="Qb9tFj-eZxgiYMaZ9Jdv-51" target="Qb9tFj-eZxgiYMaZ9Jdv-19" edge="1">
          <mxGeometry relative="1" as="geometry">
            <Array as="points">
              <mxPoint x="-170" y="250" />
              <mxPoint x="-130" y="250" />
              <mxPoint x="-130" y="270" />
              <mxPoint x="-110" y="270" />
            </Array>
          </mxGeometry>
        </mxCell>
        <mxCell id="Qb9tFj-eZxgiYMaZ9Jdv-85" style="edgeStyle=orthogonalEdgeStyle;rounded=0;orthogonalLoop=1;jettySize=auto;html=1;entryX=0.384;entryY=0.002;entryDx=0;entryDy=0;entryPerimeter=0;" parent="WIyWlLk6GJQsqaUBKTNV-1" source="Qb9tFj-eZxgiYMaZ9Jdv-51" target="Qb9tFj-eZxgiYMaZ9Jdv-58" edge="1">
          <mxGeometry relative="1" as="geometry" />
        </mxCell>
        <mxCell id="Qb9tFj-eZxgiYMaZ9Jdv-51" value="Snake" style="swimlane;fontStyle=0;align=center;verticalAlign=top;childLayout=stackLayout;horizontal=1;startSize=26;horizontalStack=0;resizeParent=1;resizeLast=0;collapsible=1;marginBottom=0;rounded=0;shadow=0;strokeWidth=1;fillColor=#fff2cc;strokeColor=#d6b656;" parent="WIyWlLk6GJQsqaUBKTNV-1" vertex="1">
          <mxGeometry x="-260" y="-40" width="160" height="230" as="geometry">
            <mxRectangle x="130" y="380" width="160" height="26" as="alternateBounds" />
          </mxGeometry>
        </mxCell>
        <mxCell id="Qb9tFj-eZxgiYMaZ9Jdv-52" value="parent_world&#xa;curr_Path&#xa;length&#xa;body&#xa;" style="text;align=left;verticalAlign=top;spacingLeft=4;spacingRight=4;overflow=hidden;rotatable=0;points=[[0,0.5],[1,0.5]];portConstraint=eastwest;rounded=0;shadow=0;html=0;" parent="Qb9tFj-eZxgiYMaZ9Jdv-51" vertex="1">
          <mxGeometry y="26" width="160" height="74" as="geometry" />
        </mxCell>
        <mxCell id="Qb9tFj-eZxgiYMaZ9Jdv-53" value="" style="line;html=1;strokeWidth=1;align=left;verticalAlign=middle;spacingTop=-1;spacingLeft=3;spacingRight=3;rotatable=0;labelPosition=right;points=[];portConstraint=eastwest;" parent="Qb9tFj-eZxgiYMaZ9Jdv-51" vertex="1">
          <mxGeometry y="100" width="160" height="8" as="geometry" />
        </mxCell>
        <mxCell id="Qb9tFj-eZxgiYMaZ9Jdv-54" value="getHeadCoord&#xa;getHead&#xa;eatFood&#xa;moveForward" style="text;align=left;verticalAlign=top;spacingLeft=4;spacingRight=4;overflow=hidden;rotatable=0;points=[[0,0.5],[1,0.5]];portConstraint=eastwest;fontStyle=0" parent="Qb9tFj-eZxgiYMaZ9Jdv-51" vertex="1">
          <mxGeometry y="108" width="160" height="72" as="geometry" />
        </mxCell>
        <mxCell id="Qb9tFj-eZxgiYMaZ9Jdv-55" value="" style="line;html=1;strokeWidth=1;align=left;verticalAlign=middle;spacingTop=-1;spacingLeft=3;spacingRight=3;rotatable=0;labelPosition=right;points=[];portConstraint=eastwest;" parent="Qb9tFj-eZxgiYMaZ9Jdv-51" vertex="1">
          <mxGeometry y="180" width="160" height="8" as="geometry" />
        </mxCell>
        <mxCell id="Qb9tFj-eZxgiYMaZ9Jdv-56" value="&lt;div&gt;(World_Ptr)&lt;/div&gt;&lt;div&gt;(World_Ptr, uint16_t)&lt;/div&gt;" style="text;html=1;align=center;verticalAlign=middle;resizable=0;points=[];autosize=1;" parent="Qb9tFj-eZxgiYMaZ9Jdv-51" vertex="1">
          <mxGeometry y="188" width="160" height="30" as="geometry" />
        </mxCell>
        <mxCell id="Qb9tFj-eZxgiYMaZ9Jdv-57" style="edgeStyle=orthogonalEdgeStyle;rounded=0;orthogonalLoop=1;jettySize=auto;html=1;entryX=0.002;entryY=0.065;entryDx=0;entryDy=0;entryPerimeter=0;" parent="WIyWlLk6GJQsqaUBKTNV-1" source="Qb9tFj-eZxgiYMaZ9Jdv-21" target="Qb9tFj-eZxgiYMaZ9Jdv-51" edge="1">
          <mxGeometry relative="1" as="geometry">
            <Array as="points">
              <mxPoint x="-210" y="310" />
              <mxPoint x="-300" y="310" />
              <mxPoint x="-300" y="26" />
            </Array>
          </mxGeometry>
        </mxCell>
        <mxCell id="Qb9tFj-eZxgiYMaZ9Jdv-58" value="Graph_Box" style="swimlane;fontStyle=0;align=center;verticalAlign=top;childLayout=stackLayout;horizontal=1;startSize=26;horizontalStack=0;resizeParent=1;resizeLast=0;collapsible=1;marginBottom=0;rounded=0;shadow=0;strokeWidth=1;fillColor=#fff2cc;strokeColor=#d6b656;" parent="WIyWlLk6GJQsqaUBKTNV-1" vertex="1">
          <mxGeometry x="-550" y="900" width="160" height="250" as="geometry">
            <mxRectangle x="130" y="380" width="160" height="26" as="alternateBounds" />
          </mxGeometry>
        </mxCell>
        <mxCell id="Qb9tFj-eZxgiYMaZ9Jdv-59" value="var" style="text;align=left;verticalAlign=top;spacingLeft=4;spacingRight=4;overflow=hidden;rotatable=0;points=[[0,0.5],[1,0.5]];portConstraint=eastwest;rounded=0;shadow=0;html=0;" parent="Qb9tFj-eZxgiYMaZ9Jdv-58" vertex="1">
          <mxGeometry y="26" width="160" height="74" as="geometry" />
        </mxCell>
        <mxCell id="Qb9tFj-eZxgiYMaZ9Jdv-60" value="" style="line;html=1;strokeWidth=1;align=left;verticalAlign=middle;spacingTop=-1;spacingLeft=3;spacingRight=3;rotatable=0;labelPosition=right;points=[];portConstraint=eastwest;" parent="Qb9tFj-eZxgiYMaZ9Jdv-58" vertex="1">
          <mxGeometry y="100" width="160" height="8" as="geometry" />
        </mxCell>
        <mxCell id="Qb9tFj-eZxgiYMaZ9Jdv-61" value="func" style="text;align=left;verticalAlign=top;spacingLeft=4;spacingRight=4;overflow=hidden;rotatable=0;points=[[0,0.5],[1,0.5]];portConstraint=eastwest;fontStyle=0" parent="Qb9tFj-eZxgiYMaZ9Jdv-58" vertex="1">
          <mxGeometry y="108" width="160" height="90" as="geometry" />
        </mxCell>
        <mxCell id="Qb9tFj-eZxgiYMaZ9Jdv-62" value="" style="line;html=1;strokeWidth=1;align=left;verticalAlign=middle;spacingTop=-1;spacingLeft=3;spacingRight=3;rotatable=0;labelPosition=right;points=[];portConstraint=eastwest;" parent="Qb9tFj-eZxgiYMaZ9Jdv-58" vertex="1">
          <mxGeometry y="198" width="160" height="8" as="geometry" />
        </mxCell>
        <mxCell id="Qb9tFj-eZxgiYMaZ9Jdv-63" value="()" style="text;html=1;align=center;verticalAlign=middle;resizable=0;points=[];autosize=1;" parent="Qb9tFj-eZxgiYMaZ9Jdv-58" vertex="1">
          <mxGeometry y="206" width="160" height="20" as="geometry" />
        </mxCell>
        <mxCell id="Qb9tFj-eZxgiYMaZ9Jdv-64" value="_box" style="swimlane;fontStyle=0;align=center;verticalAlign=top;childLayout=stackLayout;horizontal=1;startSize=26;horizontalStack=0;resizeParent=1;resizeLast=0;collapsible=1;marginBottom=0;rounded=0;shadow=0;strokeWidth=1;fillColor=#d5e8d4;strokeColor=#82b366;" parent="WIyWlLk6GJQsqaUBKTNV-1" vertex="1">
          <mxGeometry x="-780" y="410" width="160" height="100" as="geometry">
            <mxRectangle x="340" y="380" width="170" height="26" as="alternateBounds" />
          </mxGeometry>
        </mxCell>
        <mxCell id="Qb9tFj-eZxgiYMaZ9Jdv-65" value="var" style="text;align=left;verticalAlign=top;spacingLeft=4;spacingRight=4;overflow=hidden;rotatable=0;points=[[0,0.5],[1,0.5]];portConstraint=eastwest;" parent="Qb9tFj-eZxgiYMaZ9Jdv-64" vertex="1">
          <mxGeometry y="26" width="160" height="26" as="geometry" />
        </mxCell>
        <mxCell id="Qb9tFj-eZxgiYMaZ9Jdv-66" value="" style="line;html=1;strokeWidth=1;align=left;verticalAlign=middle;spacingTop=-1;spacingLeft=3;spacingRight=3;rotatable=0;labelPosition=right;points=[];portConstraint=eastwest;" parent="Qb9tFj-eZxgiYMaZ9Jdv-64" vertex="1">
          <mxGeometry y="52" width="160" height="8" as="geometry" />
        </mxCell>
        <mxCell id="Qb9tFj-eZxgiYMaZ9Jdv-67" value="func" style="text;html=1;align=left;verticalAlign=middle;resizable=0;points=[];autosize=1;movable=1;rotatable=1;deletable=1;editable=1;connectable=1;" parent="Qb9tFj-eZxgiYMaZ9Jdv-64" vertex="1">
          <mxGeometry y="60" width="160" height="20" as="geometry" />
        </mxCell>
        <mxCell id="Qb9tFj-eZxgiYMaZ9Jdv-68" style="edgeStyle=orthogonalEdgeStyle;rounded=0;orthogonalLoop=1;jettySize=auto;html=1;entryX=1.004;entryY=0.166;entryDx=0;entryDy=0;entryPerimeter=0;" parent="WIyWlLk6GJQsqaUBKTNV-1" source="Qb9tFj-eZxgiYMaZ9Jdv-23" target="Qb9tFj-eZxgiYMaZ9Jdv-64" edge="1">
          <mxGeometry relative="1" as="geometry" />
        </mxCell>
        <mxCell id="Qb9tFj-eZxgiYMaZ9Jdv-70" value="coord" style="swimlane;fontStyle=0;align=center;verticalAlign=top;childLayout=stackLayout;horizontal=1;startSize=26;horizontalStack=0;resizeParent=1;resizeLast=0;collapsible=1;marginBottom=0;rounded=0;shadow=0;strokeWidth=1;fillColor=#d5e8d4;strokeColor=#82b366;" parent="WIyWlLk6GJQsqaUBKTNV-1" vertex="1">
          <mxGeometry x="-720" y="682" width="160" height="34" as="geometry">
            <mxRectangle x="340" y="380" width="170" height="26" as="alternateBounds" />
          </mxGeometry>
        </mxCell>
        <mxCell id="Qb9tFj-eZxgiYMaZ9Jdv-72" value="" style="line;html=1;strokeWidth=1;align=left;verticalAlign=middle;spacingTop=-1;spacingLeft=3;spacingRight=3;rotatable=0;labelPosition=right;points=[];portConstraint=eastwest;" parent="Qb9tFj-eZxgiYMaZ9Jdv-70" vertex="1">
          <mxGeometry y="26" width="160" height="8" as="geometry" />
        </mxCell>
        <mxCell id="Qb9tFj-eZxgiYMaZ9Jdv-74" style="edgeStyle=orthogonalEdgeStyle;rounded=0;orthogonalLoop=1;jettySize=auto;html=1;" parent="WIyWlLk6GJQsqaUBKTNV-1" source="Qb9tFj-eZxgiYMaZ9Jdv-23" target="Qb9tFj-eZxgiYMaZ9Jdv-70" edge="1">
          <mxGeometry relative="1" as="geometry" />
        </mxCell>
        <mxCell id="Qb9tFj-eZxgiYMaZ9Jdv-75" value="util::_coord" style="swimlane;fontStyle=0;align=center;verticalAlign=top;childLayout=stackLayout;horizontal=1;startSize=26;horizontalStack=0;resizeParent=1;resizeLast=0;collapsible=1;marginBottom=0;rounded=0;shadow=0;strokeWidth=1;fillColor=#d5e8d4;strokeColor=#82b366;" parent="WIyWlLk6GJQsqaUBKTNV-1" vertex="1">
          <mxGeometry x="-840" y="610" width="160" height="34" as="geometry">
            <mxRectangle x="340" y="380" width="170" height="26" as="alternateBounds" />
          </mxGeometry>
        </mxCell>
        <mxCell id="Qb9tFj-eZxgiYMaZ9Jdv-76" value="" style="line;html=1;strokeWidth=1;align=left;verticalAlign=middle;spacingTop=-1;spacingLeft=3;spacingRight=3;rotatable=0;labelPosition=right;points=[];portConstraint=eastwest;" parent="Qb9tFj-eZxgiYMaZ9Jdv-75" vertex="1">
          <mxGeometry y="26" width="160" height="8" as="geometry" />
        </mxCell>
        <mxCell id="Qb9tFj-eZxgiYMaZ9Jdv-78" value="" style="endArrow=block;endSize=10;endFill=0;shadow=0;strokeWidth=1;rounded=0;edgeStyle=elbowEdgeStyle;elbow=vertical;exitX=0.5;exitY=0;exitDx=0;exitDy=0;entryX=0.506;entryY=1.115;entryDx=0;entryDy=0;entryPerimeter=0;" parent="WIyWlLk6GJQsqaUBKTNV-1" source="Qb9tFj-eZxgiYMaZ9Jdv-8" target="Qb9tFj-eZxgiYMaZ9Jdv-30" edge="1">
          <mxGeometry width="160" relative="1" as="geometry">
            <mxPoint x="590" y="652" as="sourcePoint" />
            <mxPoint x="480" y="522" as="targetPoint" />
          </mxGeometry>
        </mxCell>
        <mxCell id="Qb9tFj-eZxgiYMaZ9Jdv-79" value="" style="endArrow=block;endSize=10;endFill=0;shadow=0;strokeWidth=1;rounded=0;edgeStyle=elbowEdgeStyle;elbow=vertical;entryX=0.5;entryY=1;entryDx=0;entryDy=0;" parent="WIyWlLk6GJQsqaUBKTNV-1" target="Qb9tFj-eZxgiYMaZ9Jdv-75" edge="1">
          <mxGeometry width="160" relative="1" as="geometry">
            <mxPoint x="-650" y="680" as="sourcePoint" />
            <mxPoint x="-659.04" y="650" as="targetPoint" />
          </mxGeometry>
        </mxCell>
        <mxCell id="Qb9tFj-eZxgiYMaZ9Jdv-81" value="" style="endArrow=block;endSize=10;endFill=0;shadow=0;strokeWidth=1;rounded=0;edgeStyle=elbowEdgeStyle;elbow=vertical;exitX=0.5;exitY=0;exitDx=0;exitDy=0;entryX=0.5;entryY=1.052;entryDx=0;entryDy=0;entryPerimeter=0;" parent="WIyWlLk6GJQsqaUBKTNV-1" source="Qb9tFj-eZxgiYMaZ9Jdv-19" target="Qb9tFj-eZxgiYMaZ9Jdv-4" edge="1">
          <mxGeometry width="160" relative="1" as="geometry">
            <mxPoint x="200" y="360" as="sourcePoint" />
            <mxPoint x="360" y="-190" as="targetPoint" />
            <Array as="points" />
          </mxGeometry>
        </mxCell>
        <mxCell id="Qb9tFj-eZxgiYMaZ9Jdv-82" value="" style="endArrow=block;endSize=10;endFill=0;shadow=0;strokeWidth=1;rounded=0;edgeStyle=elbowEdgeStyle;elbow=vertical;exitX=0.5;exitY=0;exitDx=0;exitDy=0;entryX=0.5;entryY=1;entryDx=0;entryDy=0;" parent="WIyWlLk6GJQsqaUBKTNV-1" source="Qb9tFj-eZxgiYMaZ9Jdv-51" target="zkfFHV4jXpPFQw0GAbJ--6" edge="1">
          <mxGeometry width="160" relative="1" as="geometry">
            <mxPoint x="-130" y="292" as="sourcePoint" />
            <mxPoint x="300" y="120" as="targetPoint" />
            <Array as="points">
              <mxPoint x="50" y="-60" />
            </Array>
          </mxGeometry>
        </mxCell>
        <mxCell id="Qb9tFj-eZxgiYMaZ9Jdv-86" value="Square_Matrix" style="swimlane;fontStyle=0;align=center;verticalAlign=top;childLayout=stackLayout;horizontal=1;startSize=26;horizontalStack=0;resizeParent=1;resizeLast=0;collapsible=1;marginBottom=0;rounded=0;shadow=0;strokeWidth=1;fillColor=#fff2cc;strokeColor=#d6b656;" parent="WIyWlLk6GJQsqaUBKTNV-1" vertex="1">
          <mxGeometry x="-120" y="870" width="160" height="250" as="geometry">
            <mxRectangle x="130" y="380" width="160" height="26" as="alternateBounds" />
          </mxGeometry>
        </mxCell>
        <mxCell id="Qb9tFj-eZxgiYMaZ9Jdv-87" value="var" style="text;align=left;verticalAlign=top;spacingLeft=4;spacingRight=4;overflow=hidden;rotatable=0;points=[[0,0.5],[1,0.5]];portConstraint=eastwest;rounded=0;shadow=0;html=0;" parent="Qb9tFj-eZxgiYMaZ9Jdv-86" vertex="1">
          <mxGeometry y="26" width="160" height="74" as="geometry" />
        </mxCell>
        <mxCell id="Qb9tFj-eZxgiYMaZ9Jdv-88" value="" style="line;html=1;strokeWidth=1;align=left;verticalAlign=middle;spacingTop=-1;spacingLeft=3;spacingRight=3;rotatable=0;labelPosition=right;points=[];portConstraint=eastwest;" parent="Qb9tFj-eZxgiYMaZ9Jdv-86" vertex="1">
          <mxGeometry y="100" width="160" height="8" as="geometry" />
        </mxCell>
        <mxCell id="Qb9tFj-eZxgiYMaZ9Jdv-89" value="func" style="text;align=left;verticalAlign=top;spacingLeft=4;spacingRight=4;overflow=hidden;rotatable=0;points=[[0,0.5],[1,0.5]];portConstraint=eastwest;fontStyle=0" parent="Qb9tFj-eZxgiYMaZ9Jdv-86" vertex="1">
          <mxGeometry y="108" width="160" height="90" as="geometry" />
        </mxCell>
        <mxCell id="Qb9tFj-eZxgiYMaZ9Jdv-90" value="" style="line;html=1;strokeWidth=1;align=left;verticalAlign=middle;spacingTop=-1;spacingLeft=3;spacingRight=3;rotatable=0;labelPosition=right;points=[];portConstraint=eastwest;" parent="Qb9tFj-eZxgiYMaZ9Jdv-86" vertex="1">
          <mxGeometry y="198" width="160" height="8" as="geometry" />
        </mxCell>
        <mxCell id="Qb9tFj-eZxgiYMaZ9Jdv-91" value="()" style="text;html=1;align=center;verticalAlign=middle;resizable=0;points=[];autosize=1;" parent="Qb9tFj-eZxgiYMaZ9Jdv-86" vertex="1">
          <mxGeometry y="206" width="160" height="20" as="geometry" />
        </mxCell>
        <mxCell id="Qb9tFj-eZxgiYMaZ9Jdv-92" value="" style="endArrow=block;endSize=10;endFill=0;shadow=0;strokeWidth=1;rounded=0;edgeStyle=elbowEdgeStyle;elbow=vertical;exitX=0.5;exitY=0;exitDx=0;exitDy=0;entryX=0.5;entryY=1;entryDx=0;entryDy=0;" parent="WIyWlLk6GJQsqaUBKTNV-1" source="Qb9tFj-eZxgiYMaZ9Jdv-44" target="Qb9tFj-eZxgiYMaZ9Jdv-86" edge="1">
          <mxGeometry width="160" relative="1" as="geometry">
            <mxPoint x="-120" y="279.99999999999955" as="sourcePoint" />
            <mxPoint x="300" y="229.99999999999955" as="targetPoint" />
            <Array as="points">
              <mxPoint x="-120" y="1140" />
            </Array>
          </mxGeometry>
        </mxCell>
        <mxCell id="Qb9tFj-eZxgiYMaZ9Jdv-94" style="edgeStyle=orthogonalEdgeStyle;rounded=0;orthogonalLoop=1;jettySize=auto;html=1;entryX=0.75;entryY=0;entryDx=0;entryDy=0;" parent="WIyWlLk6GJQsqaUBKTNV-1" source="Qb9tFj-eZxgiYMaZ9Jdv-45" target="Qb9tFj-eZxgiYMaZ9Jdv-58" edge="1">
          <mxGeometry relative="1" as="geometry" />
        </mxCell>
        <mxCell id="Qb9tFj-eZxgiYMaZ9Jdv-96" style="edgeStyle=orthogonalEdgeStyle;rounded=0;orthogonalLoop=1;jettySize=auto;html=1;entryX=0.5;entryY=0;entryDx=0;entryDy=0;" parent="WIyWlLk6GJQsqaUBKTNV-1" source="Qb9tFj-eZxgiYMaZ9Jdv-45" target="Qb9tFj-eZxgiYMaZ9Jdv-97" edge="1">
          <mxGeometry relative="1" as="geometry">
            <mxPoint x="-70" y="1329.9999999999995" as="targetPoint" />
          </mxGeometry>
        </mxCell>
        <mxCell id="Qb9tFj-eZxgiYMaZ9Jdv-97" value="__temp" style="swimlane;fontStyle=0;align=center;verticalAlign=top;childLayout=stackLayout;horizontal=1;startSize=26;horizontalStack=0;resizeParent=1;resizeLast=0;collapsible=1;marginBottom=0;rounded=0;shadow=0;strokeWidth=1;fillColor=#d5e8d4;strokeColor=#82b366;" parent="WIyWlLk6GJQsqaUBKTNV-1" vertex="1">
          <mxGeometry x="-140" y="1330" width="160" height="100" as="geometry">
            <mxRectangle x="340" y="380" width="170" height="26" as="alternateBounds" />
          </mxGeometry>
        </mxCell>
        <mxCell id="Qb9tFj-eZxgiYMaZ9Jdv-98" value="time_since_speed_updated" style="text;align=left;verticalAlign=top;spacingLeft=4;spacingRight=4;overflow=hidden;rotatable=0;points=[[0,0.5],[1,0.5]];portConstraint=eastwest;" parent="Qb9tFj-eZxgiYMaZ9Jdv-97" vertex="1">
          <mxGeometry y="26" width="160" height="26" as="geometry" />
        </mxCell>
        <mxCell id="Qb9tFj-eZxgiYMaZ9Jdv-99" value="" style="line;html=1;strokeWidth=1;align=left;verticalAlign=middle;spacingTop=-1;spacingLeft=3;spacingRight=3;rotatable=0;labelPosition=right;points=[];portConstraint=eastwest;" parent="Qb9tFj-eZxgiYMaZ9Jdv-97" vertex="1">
          <mxGeometry y="52" width="160" height="8" as="geometry" />
        </mxCell>
        <mxCell id="Qb9tFj-eZxgiYMaZ9Jdv-100" value="&lt;div align=&quot;left&quot;&gt;expansion_speed&lt;/div&gt;free_space_ratio" style="text;html=1;align=left;verticalAlign=middle;resizable=0;points=[];autosize=1;movable=1;rotatable=1;deletable=1;editable=1;connectable=1;" parent="Qb9tFj-eZxgiYMaZ9Jdv-97" vertex="1">
          <mxGeometry y="60" width="160" height="30" as="geometry" />
        </mxCell>
        <mxCell id="Qb9tFj-eZxgiYMaZ9Jdv-101" value="Obstacle" style="swimlane;fontStyle=0;align=center;verticalAlign=top;childLayout=stackLayout;horizontal=1;startSize=26;horizontalStack=0;resizeParent=1;resizeLast=0;collapsible=1;marginBottom=0;rounded=0;shadow=0;strokeWidth=1;fillColor=#fff2cc;strokeColor=#d6b656;" parent="WIyWlLk6GJQsqaUBKTNV-1" vertex="1">
          <mxGeometry x="-30" y="-40" width="160" height="20" as="geometry">
            <mxRectangle x="130" y="380" width="160" height="26" as="alternateBounds" />
          </mxGeometry>
        </mxCell>
        <mxCell id="Qb9tFj-eZxgiYMaZ9Jdv-107" value="" style="endArrow=block;endSize=10;endFill=0;shadow=0;strokeWidth=1;rounded=0;edgeStyle=elbowEdgeStyle;elbow=vertical;exitX=0.5;exitY=0;exitDx=0;exitDy=0;entryX=0.5;entryY=1;entryDx=0;entryDy=0;" parent="WIyWlLk6GJQsqaUBKTNV-1" source="Qb9tFj-eZxgiYMaZ9Jdv-101" target="zkfFHV4jXpPFQw0GAbJ--6" edge="1">
          <mxGeometry width="160" relative="1" as="geometry">
            <mxPoint x="-180" y="-39.99999999999977" as="sourcePoint" />
            <mxPoint x="186.07999999999993" y="355.8600000000001" as="targetPoint" />
            <Array as="points">
              <mxPoint x="50" y="-60" />
            </Array>
          </mxGeometry>
        </mxCell>
        <mxCell id="E2XUY7L-ip-pg07SVNI4-24" style="edgeStyle=orthogonalEdgeStyle;rounded=0;orthogonalLoop=1;jettySize=auto;html=1;exitX=1;exitY=0.25;exitDx=0;exitDy=0;entryX=-0.008;entryY=0.645;entryDx=0;entryDy=0;entryPerimeter=0;" edge="1" parent="WIyWlLk6GJQsqaUBKTNV-1" source="E2XUY7L-ip-pg07SVNI4-0" target="E2XUY7L-ip-pg07SVNI4-19">
          <mxGeometry relative="1" as="geometry" />
        </mxCell>
        <mxCell id="E2XUY7L-ip-pg07SVNI4-0" value="node_adapter" style="swimlane;fontStyle=0;align=center;verticalAlign=top;childLayout=stackLayout;horizontal=1;startSize=26;horizontalStack=0;resizeParent=1;resizeLast=0;collapsible=1;marginBottom=0;rounded=0;shadow=0;strokeWidth=1;fillColor=#fff2cc;strokeColor=#d6b656;" vertex="1" parent="WIyWlLk6GJQsqaUBKTNV-1">
          <mxGeometry x="-800" y="1040" width="165" height="210" as="geometry">
            <mxRectangle x="130" y="380" width="160" height="26" as="alternateBounds" />
          </mxGeometry>
        </mxCell>
        <mxCell id="E2XUY7L-ip-pg07SVNI4-1" value="window&#xa;dispMngr&#xa;node_id&#xa;node&#xa;" style="text;align=left;verticalAlign=top;spacingLeft=4;spacingRight=4;overflow=hidden;rotatable=0;points=[[0,0.5],[1,0.5]];portConstraint=eastwest;rounded=0;shadow=0;html=0;" vertex="1" parent="E2XUY7L-ip-pg07SVNI4-0">
          <mxGeometry y="26" width="165" height="74" as="geometry" />
        </mxCell>
        <mxCell id="E2XUY7L-ip-pg07SVNI4-2" value="" style="line;html=1;strokeWidth=1;align=left;verticalAlign=middle;spacingTop=-1;spacingLeft=3;spacingRight=3;rotatable=0;labelPosition=right;points=[];portConstraint=eastwest;" vertex="1" parent="E2XUY7L-ip-pg07SVNI4-0">
          <mxGeometry y="100" width="165" height="8" as="geometry" />
        </mxCell>
        <mxCell id="E2XUY7L-ip-pg07SVNI4-3" value="disable&#xa;update" style="text;align=left;verticalAlign=top;spacingLeft=4;spacingRight=4;overflow=hidden;rotatable=0;points=[[0,0.5],[1,0.5]];portConstraint=eastwest;fontStyle=0" vertex="1" parent="E2XUY7L-ip-pg07SVNI4-0">
          <mxGeometry y="108" width="165" height="52" as="geometry" />
        </mxCell>
        <mxCell id="E2XUY7L-ip-pg07SVNI4-4" value="" style="line;html=1;strokeWidth=1;align=left;verticalAlign=middle;spacingTop=-1;spacingLeft=3;spacingRight=3;rotatable=0;labelPosition=right;points=[];portConstraint=eastwest;" vertex="1" parent="E2XUY7L-ip-pg07SVNI4-0">
          <mxGeometry y="160" width="165" height="8" as="geometry" />
        </mxCell>
        <mxCell id="E2XUY7L-ip-pg07SVNI4-5" value="&lt;div&gt;(DispMngr, World_Node_Ptr,&lt;/div&gt;&lt;div&gt; int, int,int, int)&lt;/div&gt;" style="text;html=1;align=center;verticalAlign=middle;resizable=0;points=[];autosize=1;" vertex="1" parent="E2XUY7L-ip-pg07SVNI4-0">
          <mxGeometry y="168" width="165" height="30" as="geometry" />
        </mxCell>
        <mxCell id="E2XUY7L-ip-pg07SVNI4-6" value="SubWindow" style="swimlane;fontStyle=0;align=center;verticalAlign=top;childLayout=stackLayout;horizontal=1;startSize=26;horizontalStack=0;resizeParent=1;resizeLast=0;collapsible=1;marginBottom=0;rounded=0;shadow=0;strokeWidth=1;fillColor=#fff2cc;strokeColor=#d6b656;" vertex="1" parent="WIyWlLk6GJQsqaUBKTNV-1">
          <mxGeometry x="-1020" y="930" width="175" height="438" as="geometry">
            <mxRectangle x="130" y="380" width="160" height="26" as="alternateBounds" />
          </mxGeometry>
        </mxCell>
        <mxCell id="E2XUY7L-ip-pg07SVNI4-7" value="enabled&#xa;y_corner&#xa;x_corner&#xa;dimensions&#xa;last_write_pos&#xa;boxed&#xa;win&#xa;parent_win&#xa;" style="text;align=left;verticalAlign=top;spacingLeft=4;spacingRight=4;overflow=hidden;rotatable=0;points=[[0,0.5],[1,0.5]];portConstraint=eastwest;rounded=0;shadow=0;html=0;" vertex="1" parent="E2XUY7L-ip-pg07SVNI4-6">
          <mxGeometry y="26" width="175" height="124" as="geometry" />
        </mxCell>
        <mxCell id="E2XUY7L-ip-pg07SVNI4-8" value="" style="line;html=1;strokeWidth=1;align=left;verticalAlign=middle;spacingTop=-1;spacingLeft=3;spacingRight=3;rotatable=0;labelPosition=right;points=[];portConstraint=eastwest;" vertex="1" parent="E2XUY7L-ip-pg07SVNI4-6">
          <mxGeometry y="150" width="175" height="8" as="geometry" />
        </mxCell>
        <mxCell id="E2XUY7L-ip-pg07SVNI4-9" value="box&#xa;refreshParent&#xa;refresh&#xa;disable&#xa;enable&#xa;getmax_x&#xa;getmax_y&#xa;updateDimen&#xa;newline&#xa;moveCursor&#xa;hline&#xa;addstr&#xa;nladdstr&#xa;addch&#xa;printf&#xa;" style="text;align=left;verticalAlign=top;spacingLeft=4;spacingRight=4;overflow=hidden;rotatable=0;points=[[0,0.5],[1,0.5]];portConstraint=eastwest;fontStyle=0" vertex="1" parent="E2XUY7L-ip-pg07SVNI4-6">
          <mxGeometry y="158" width="175" height="232" as="geometry" />
        </mxCell>
        <mxCell id="E2XUY7L-ip-pg07SVNI4-10" value="" style="line;html=1;strokeWidth=1;align=left;verticalAlign=middle;spacingTop=-1;spacingLeft=3;spacingRight=3;rotatable=0;labelPosition=right;points=[];portConstraint=eastwest;" vertex="1" parent="E2XUY7L-ip-pg07SVNI4-6">
          <mxGeometry y="390" width="175" height="8" as="geometry" />
        </mxCell>
        <mxCell id="E2XUY7L-ip-pg07SVNI4-11" value="&lt;div&gt;(int, int, int, int)&lt;/div&gt;&lt;div&gt;(SubWindow_Ptr, int, int, int, int)&lt;/div&gt;" style="text;html=1;align=center;verticalAlign=middle;resizable=0;points=[];autosize=1;" vertex="1" parent="E2XUY7L-ip-pg07SVNI4-6">
          <mxGeometry y="398" width="175" height="30" as="geometry" />
        </mxCell>
        <mxCell id="E2XUY7L-ip-pg07SVNI4-12" value="single_term" style="swimlane;fontStyle=0;align=center;verticalAlign=top;childLayout=stackLayout;horizontal=1;startSize=26;horizontalStack=0;resizeParent=1;resizeLast=0;collapsible=1;marginBottom=0;rounded=0;shadow=0;strokeWidth=1;fillColor=#fff2cc;strokeColor=#d6b656;" vertex="1" parent="WIyWlLk6GJQsqaUBKTNV-1">
          <mxGeometry x="-1380" y="502" width="160" height="250" as="geometry">
            <mxRectangle x="130" y="380" width="160" height="26" as="alternateBounds" />
          </mxGeometry>
        </mxCell>
        <mxCell id="E2XUY7L-ip-pg07SVNI4-13" value="var" style="text;align=left;verticalAlign=top;spacingLeft=4;spacingRight=4;overflow=hidden;rotatable=0;points=[[0,0.5],[1,0.5]];portConstraint=eastwest;rounded=0;shadow=0;html=0;" vertex="1" parent="E2XUY7L-ip-pg07SVNI4-12">
          <mxGeometry y="26" width="160" height="74" as="geometry" />
        </mxCell>
        <mxCell id="E2XUY7L-ip-pg07SVNI4-14" value="" style="line;html=1;strokeWidth=1;align=left;verticalAlign=middle;spacingTop=-1;spacingLeft=3;spacingRight=3;rotatable=0;labelPosition=right;points=[];portConstraint=eastwest;" vertex="1" parent="E2XUY7L-ip-pg07SVNI4-12">
          <mxGeometry y="100" width="160" height="8" as="geometry" />
        </mxCell>
        <mxCell id="E2XUY7L-ip-pg07SVNI4-15" value="func" style="text;align=left;verticalAlign=top;spacingLeft=4;spacingRight=4;overflow=hidden;rotatable=0;points=[[0,0.5],[1,0.5]];portConstraint=eastwest;fontStyle=0" vertex="1" parent="E2XUY7L-ip-pg07SVNI4-12">
          <mxGeometry y="108" width="160" height="90" as="geometry" />
        </mxCell>
        <mxCell id="E2XUY7L-ip-pg07SVNI4-16" value="" style="line;html=1;strokeWidth=1;align=left;verticalAlign=middle;spacingTop=-1;spacingLeft=3;spacingRight=3;rotatable=0;labelPosition=right;points=[];portConstraint=eastwest;" vertex="1" parent="E2XUY7L-ip-pg07SVNI4-12">
          <mxGeometry y="198" width="160" height="8" as="geometry" />
        </mxCell>
        <mxCell id="E2XUY7L-ip-pg07SVNI4-17" value="()" style="text;html=1;align=center;verticalAlign=middle;resizable=0;points=[];autosize=1;" vertex="1" parent="E2XUY7L-ip-pg07SVNI4-12">
          <mxGeometry y="206" width="160" height="20" as="geometry" />
        </mxCell>
        <mxCell id="E2XUY7L-ip-pg07SVNI4-18" value="World_Node" style="swimlane;fontStyle=0;align=center;verticalAlign=top;childLayout=stackLayout;horizontal=1;startSize=26;horizontalStack=0;resizeParent=1;resizeLast=0;collapsible=1;marginBottom=0;rounded=0;shadow=0;strokeWidth=1;fillColor=#fff2cc;strokeColor=#d6b656;" vertex="1" parent="WIyWlLk6GJQsqaUBKTNV-1">
          <mxGeometry x="-550" y="1460" width="160" height="250" as="geometry">
            <mxRectangle x="130" y="380" width="160" height="26" as="alternateBounds" />
          </mxGeometry>
        </mxCell>
        <mxCell id="E2XUY7L-ip-pg07SVNI4-19" value="var" style="text;align=left;verticalAlign=top;spacingLeft=4;spacingRight=4;overflow=hidden;rotatable=0;points=[[0,0.5],[1,0.5]];portConstraint=eastwest;rounded=0;shadow=0;html=0;" vertex="1" parent="E2XUY7L-ip-pg07SVNI4-18">
          <mxGeometry y="26" width="160" height="74" as="geometry" />
        </mxCell>
        <mxCell id="E2XUY7L-ip-pg07SVNI4-20" value="" style="line;html=1;strokeWidth=1;align=left;verticalAlign=middle;spacingTop=-1;spacingLeft=3;spacingRight=3;rotatable=0;labelPosition=right;points=[];portConstraint=eastwest;" vertex="1" parent="E2XUY7L-ip-pg07SVNI4-18">
          <mxGeometry y="100" width="160" height="8" as="geometry" />
        </mxCell>
        <mxCell id="E2XUY7L-ip-pg07SVNI4-21" value="func" style="text;align=left;verticalAlign=top;spacingLeft=4;spacingRight=4;overflow=hidden;rotatable=0;points=[[0,0.5],[1,0.5]];portConstraint=eastwest;fontStyle=0" vertex="1" parent="E2XUY7L-ip-pg07SVNI4-18">
          <mxGeometry y="108" width="160" height="90" as="geometry" />
        </mxCell>
        <mxCell id="E2XUY7L-ip-pg07SVNI4-22" value="" style="line;html=1;strokeWidth=1;align=left;verticalAlign=middle;spacingTop=-1;spacingLeft=3;spacingRight=3;rotatable=0;labelPosition=right;points=[];portConstraint=eastwest;" vertex="1" parent="E2XUY7L-ip-pg07SVNI4-18">
          <mxGeometry y="198" width="160" height="8" as="geometry" />
        </mxCell>
        <mxCell id="E2XUY7L-ip-pg07SVNI4-23" value="()" style="text;html=1;align=center;verticalAlign=middle;resizable=0;points=[];autosize=1;" vertex="1" parent="E2XUY7L-ip-pg07SVNI4-18">
          <mxGeometry y="206" width="160" height="20" as="geometry" />
        </mxCell>
        <mxCell id="E2XUY7L-ip-pg07SVNI4-25" style="edgeStyle=orthogonalEdgeStyle;rounded=0;orthogonalLoop=1;jettySize=auto;html=1;exitX=0;exitY=0.5;exitDx=0;exitDy=0;entryX=0.75;entryY=0;entryDx=0;entryDy=0;" edge="1" parent="WIyWlLk6GJQsqaUBKTNV-1" source="E2XUY7L-ip-pg07SVNI4-1" target="E2XUY7L-ip-pg07SVNI4-6">
          <mxGeometry relative="1" as="geometry" />
        </mxCell>
        <mxCell id="E2XUY7L-ip-pg07SVNI4-26" value="dimensions" style="swimlane;fontStyle=0;align=center;verticalAlign=top;childLayout=stackLayout;horizontal=1;startSize=26;horizontalStack=0;resizeParent=1;resizeLast=0;collapsible=1;marginBottom=0;rounded=0;shadow=0;strokeWidth=1;fillColor=#d5e8d4;strokeColor=#82b366;" vertex="1" parent="WIyWlLk6GJQsqaUBKTNV-1">
          <mxGeometry x="-1210" y="970" width="160" height="90" as="geometry">
            <mxRectangle x="340" y="380" width="170" height="26" as="alternateBounds" />
          </mxGeometry>
        </mxCell>
        <mxCell id="E2XUY7L-ip-pg07SVNI4-27" value="n_row&#xa;n_col" style="text;align=left;verticalAlign=top;spacingLeft=4;spacingRight=4;overflow=hidden;rotatable=0;points=[[0,0.5],[1,0.5]];portConstraint=eastwest;" vertex="1" parent="E2XUY7L-ip-pg07SVNI4-26">
          <mxGeometry y="26" width="160" height="44" as="geometry" />
        </mxCell>
        <mxCell id="E2XUY7L-ip-pg07SVNI4-33" style="edgeStyle=orthogonalEdgeStyle;rounded=0;orthogonalLoop=1;jettySize=auto;html=1;exitX=0;exitY=0.5;exitDx=0;exitDy=0;entryX=0.5;entryY=0;entryDx=0;entryDy=0;" edge="1" parent="WIyWlLk6GJQsqaUBKTNV-1" source="E2XUY7L-ip-pg07SVNI4-7" target="E2XUY7L-ip-pg07SVNI4-26">
          <mxGeometry relative="1" as="geometry" />
        </mxCell>
        <mxCell id="E2XUY7L-ip-pg07SVNI4-34" style="edgeStyle=orthogonalEdgeStyle;rounded=0;orthogonalLoop=1;jettySize=auto;html=1;entryX=0.5;entryY=0;entryDx=0;entryDy=0;" edge="1" parent="WIyWlLk6GJQsqaUBKTNV-1" source="E2XUY7L-ip-pg07SVNI4-7" target="E2XUY7L-ip-pg07SVNI4-30">
          <mxGeometry relative="1" as="geometry">
            <Array as="points">
              <mxPoint x="-1130" y="1070" />
            </Array>
          </mxGeometry>
        </mxCell>
        <mxCell id="E2XUY7L-ip-pg07SVNI4-39" style="edgeStyle=orthogonalEdgeStyle;rounded=0;orthogonalLoop=1;jettySize=auto;html=1;exitX=0.75;exitY=0;exitDx=0;exitDy=0;" edge="1" parent="WIyWlLk6GJQsqaUBKTNV-1" source="E2XUY7L-ip-pg07SVNI4-35" target="E2XUY7L-ip-pg07SVNI4-19">
          <mxGeometry relative="1" as="geometry" />
        </mxCell>
        <mxCell id="E2XUY7L-ip-pg07SVNI4-35" value="_8_node_queue" style="swimlane;fontStyle=1;align=center;verticalAlign=top;childLayout=stackLayout;horizontal=1;startSize=26;horizontalStack=0;resizeParent=1;resizeLast=0;collapsible=1;marginBottom=0;rounded=0;shadow=0;strokeWidth=1;fillColor=#d5e8d4;strokeColor=#82b366;" vertex="1" parent="WIyWlLk6GJQsqaUBKTNV-1">
          <mxGeometry x="-1620" y="840" width="160" height="170" as="geometry">
            <mxRectangle x="340" y="380" width="170" height="26" as="alternateBounds" />
          </mxGeometry>
        </mxCell>
        <mxCell id="E2XUY7L-ip-pg07SVNI4-36" value="data&#xa;adapters" style="text;align=left;verticalAlign=top;spacingLeft=4;spacingRight=4;overflow=hidden;rotatable=0;points=[[0,0.5],[1,0.5]];portConstraint=eastwest;" vertex="1" parent="E2XUY7L-ip-pg07SVNI4-35">
          <mxGeometry y="26" width="160" height="44" as="geometry" />
        </mxCell>
        <mxCell id="E2XUY7L-ip-pg07SVNI4-37" value="" style="line;html=1;strokeWidth=1;align=left;verticalAlign=middle;spacingTop=-1;spacingLeft=3;spacingRight=3;rotatable=0;labelPosition=right;points=[];portConstraint=eastwest;" vertex="1" parent="E2XUY7L-ip-pg07SVNI4-35">
          <mxGeometry y="70" width="160" height="8" as="geometry" />
        </mxCell>
        <mxCell id="E2XUY7L-ip-pg07SVNI4-38" value="&lt;div&gt;front&lt;/div&gt;&lt;div&gt;back&lt;/div&gt;&lt;div&gt;push&lt;/div&gt;&lt;div&gt;pop&lt;/div&gt;&lt;div&gt;size&lt;br&gt;&lt;/div&gt;" style="text;html=1;align=left;verticalAlign=middle;resizable=0;points=[];autosize=1;movable=1;rotatable=1;deletable=1;editable=1;connectable=1;" vertex="1" parent="E2XUY7L-ip-pg07SVNI4-35">
          <mxGeometry y="78" width="160" height="80" as="geometry" />
        </mxCell>
        <mxCell id="E2XUY7L-ip-pg07SVNI4-48" style="edgeStyle=orthogonalEdgeStyle;rounded=0;orthogonalLoop=1;jettySize=auto;html=1;exitX=0;exitY=0;exitDx=0;exitDy=0;entryX=0.458;entryY=0.003;entryDx=0;entryDy=0;entryPerimeter=0;" edge="1" parent="WIyWlLk6GJQsqaUBKTNV-1" source="E2XUY7L-ip-pg07SVNI4-42" target="E2XUY7L-ip-pg07SVNI4-35">
          <mxGeometry relative="1" as="geometry" />
        </mxCell>
        <mxCell id="E2XUY7L-ip-pg07SVNI4-56" style="edgeStyle=orthogonalEdgeStyle;rounded=0;orthogonalLoop=1;jettySize=auto;html=1;exitX=1;exitY=0;exitDx=0;exitDy=0;entryX=0.5;entryY=0;entryDx=0;entryDy=0;" edge="1" parent="WIyWlLk6GJQsqaUBKTNV-1" source="E2XUY7L-ip-pg07SVNI4-42" target="E2XUY7L-ip-pg07SVNI4-6">
          <mxGeometry relative="1" as="geometry" />
        </mxCell>
        <mxCell id="E2XUY7L-ip-pg07SVNI4-64" style="edgeStyle=orthogonalEdgeStyle;rounded=0;orthogonalLoop=1;jettySize=auto;html=1;exitX=1;exitY=0;exitDx=0;exitDy=0;entryX=0.5;entryY=0;entryDx=0;entryDy=0;" edge="1" parent="WIyWlLk6GJQsqaUBKTNV-1" source="E2XUY7L-ip-pg07SVNI4-42" target="E2XUY7L-ip-pg07SVNI4-57">
          <mxGeometry relative="1" as="geometry" />
        </mxCell>
        <mxCell id="E2XUY7L-ip-pg07SVNI4-49" value="std::enable_shared_from_this" style="swimlane;fontStyle=0;align=center;verticalAlign=top;childLayout=stackLayout;horizontal=1;startSize=34;horizontalStack=0;resizeParent=1;resizeLast=0;collapsible=1;marginBottom=0;rounded=0;shadow=0;strokeWidth=1;fillColor=#d5e8d4;strokeColor=#82b366;" vertex="1" parent="WIyWlLk6GJQsqaUBKTNV-1">
          <mxGeometry x="-1200" y="610" width="190" height="42" as="geometry">
            <mxRectangle x="340" y="380" width="170" height="26" as="alternateBounds" />
          </mxGeometry>
        </mxCell>
        <mxCell id="E2XUY7L-ip-pg07SVNI4-50" value="" style="line;html=1;strokeWidth=1;align=left;verticalAlign=middle;spacingTop=-1;spacingLeft=3;spacingRight=3;rotatable=0;labelPosition=right;points=[];portConstraint=eastwest;" vertex="1" parent="E2XUY7L-ip-pg07SVNI4-49">
          <mxGeometry y="34" width="190" height="8" as="geometry" />
        </mxCell>
        <mxCell id="E2XUY7L-ip-pg07SVNI4-54" value="" style="endArrow=block;endSize=10;endFill=0;shadow=0;strokeWidth=1;rounded=0;edgeStyle=elbowEdgeStyle;elbow=vertical;exitX=0.5;exitY=0;exitDx=0;exitDy=0;entryX=0.474;entryY=0.75;entryDx=0;entryDy=0;entryPerimeter=0;" edge="1" parent="WIyWlLk6GJQsqaUBKTNV-1" source="E2XUY7L-ip-pg07SVNI4-42" target="E2XUY7L-ip-pg07SVNI4-50">
          <mxGeometry width="160" relative="1" as="geometry">
            <mxPoint x="-1140" y="759.9999999999995" as="sourcePoint" />
            <mxPoint x="-940" y="729.9999999999995" as="targetPoint" />
            <Array as="points">
              <mxPoint x="-1020" y="750" />
            </Array>
          </mxGeometry>
        </mxCell>
        <mxCell id="E2XUY7L-ip-pg07SVNI4-55" value="" style="endArrow=block;endSize=10;endFill=0;shadow=0;strokeWidth=1;rounded=0;edgeStyle=elbowEdgeStyle;elbow=vertical;exitX=0.5;exitY=0;exitDx=0;exitDy=0;entryX=0.5;entryY=1;entryDx=0;entryDy=0;" edge="1" parent="WIyWlLk6GJQsqaUBKTNV-1" target="E2XUY7L-ip-pg07SVNI4-12">
          <mxGeometry width="160" relative="1" as="geometry">
            <mxPoint x="-1110.0000000000002" y="779.9999999999995" as="sourcePoint" />
            <mxPoint x="-1310" y="770" as="targetPoint" />
            <Array as="points">
              <mxPoint x="-1210" y="770" />
            </Array>
          </mxGeometry>
        </mxCell>
        <mxCell id="E2XUY7L-ip-pg07SVNI4-63" style="edgeStyle=orthogonalEdgeStyle;rounded=0;orthogonalLoop=1;jettySize=auto;html=1;exitX=0;exitY=0;exitDx=0;exitDy=0;entryX=0.75;entryY=0;entryDx=0;entryDy=0;" edge="1" parent="WIyWlLk6GJQsqaUBKTNV-1" source="E2XUY7L-ip-pg07SVNI4-57" target="E2XUY7L-ip-pg07SVNI4-42">
          <mxGeometry relative="1" as="geometry" />
        </mxCell>
        <mxCell id="E2XUY7L-ip-pg07SVNI4-57" value="Verse" style="swimlane;fontStyle=0;align=center;verticalAlign=top;childLayout=stackLayout;horizontal=1;startSize=26;horizontalStack=0;resizeParent=1;resizeLast=0;collapsible=1;marginBottom=0;rounded=0;shadow=0;strokeWidth=1;fillColor=#fff2cc;strokeColor=#d6b656;" vertex="1" parent="WIyWlLk6GJQsqaUBKTNV-1">
          <mxGeometry x="-980" y="260" width="160" height="230" as="geometry">
            <mxRectangle x="130" y="380" width="160" height="26" as="alternateBounds" />
          </mxGeometry>
        </mxCell>
        <mxCell id="E2XUY7L-ip-pg07SVNI4-58" value="worldTree&#xa;displayManager&#xa;id_to_node&#xa;&#xa;" style="text;align=left;verticalAlign=top;spacingLeft=4;spacingRight=4;overflow=hidden;rotatable=0;points=[[0,0.5],[1,0.5]];portConstraint=eastwest;rounded=0;shadow=0;html=0;" vertex="1" parent="E2XUY7L-ip-pg07SVNI4-57">
          <mxGeometry y="26" width="160" height="74" as="geometry" />
        </mxCell>
        <mxCell id="E2XUY7L-ip-pg07SVNI4-59" value="" style="line;html=1;strokeWidth=1;align=left;verticalAlign=middle;spacingTop=-1;spacingLeft=3;spacingRight=3;rotatable=0;labelPosition=right;points=[];portConstraint=eastwest;" vertex="1" parent="E2XUY7L-ip-pg07SVNI4-57">
          <mxGeometry y="100" width="160" height="8" as="geometry" />
        </mxCell>
        <mxCell id="E2XUY7L-ip-pg07SVNI4-60" value="big_bang&#xa;render_screen&#xa;kaal_day&#xa;disp_manager&#xa;" style="text;align=left;verticalAlign=top;spacingLeft=4;spacingRight=4;overflow=hidden;rotatable=0;points=[[0,0.5],[1,0.5]];portConstraint=eastwest;fontStyle=0" vertex="1" parent="E2XUY7L-ip-pg07SVNI4-57">
          <mxGeometry y="108" width="160" height="82" as="geometry" />
        </mxCell>
        <mxCell id="E2XUY7L-ip-pg07SVNI4-61" value="" style="line;html=1;strokeWidth=1;align=left;verticalAlign=middle;spacingTop=-1;spacingLeft=3;spacingRight=3;rotatable=0;labelPosition=right;points=[];portConstraint=eastwest;" vertex="1" parent="E2XUY7L-ip-pg07SVNI4-57">
          <mxGeometry y="190" width="160" height="8" as="geometry" />
        </mxCell>
        <mxCell id="E2XUY7L-ip-pg07SVNI4-62" value="()" style="text;html=1;align=center;verticalAlign=middle;resizable=0;points=[];autosize=1;" vertex="1" parent="E2XUY7L-ip-pg07SVNI4-57">
          <mxGeometry y="198" width="160" height="20" as="geometry" />
        </mxCell>
        <mxCell id="E2XUY7L-ip-pg07SVNI4-42" value="Display" style="swimlane;fontStyle=0;align=center;verticalAlign=top;childLayout=stackLayout;horizontal=1;startSize=26;horizontalStack=0;resizeParent=1;resizeLast=0;collapsible=1;marginBottom=0;rounded=0;shadow=0;strokeWidth=1;fillColor=#fff2cc;strokeColor=#d6b656;" vertex="1" parent="WIyWlLk6GJQsqaUBKTNV-1">
          <mxGeometry x="-1400" y="1210" width="160" height="430" as="geometry">
            <mxRectangle x="130" y="380" width="160" height="26" as="alternateBounds" />
          </mxGeometry>
        </mxCell>
        <mxCell id="E2XUY7L-ip-pg07SVNI4-43" value="parent_verse&#xa;QUIT_KEY&#xa;HELP_KEY&#xa;adapters_height&#xa;adapters_width&#xa;queue&#xa;top_area&#xa;main_area&#xa;legend_area&#xa;occupy_table&#xa;paused&#xa;&#xa;" style="text;align=left;verticalAlign=top;spacingLeft=4;spacingRight=4;overflow=hidden;rotatable=0;points=[[0,0.5],[1,0.5]];portConstraint=eastwest;rounded=0;shadow=0;html=0;" vertex="1" parent="E2XUY7L-ip-pg07SVNI4-42">
          <mxGeometry y="26" width="160" height="194" as="geometry" />
        </mxCell>
        <mxCell id="E2XUY7L-ip-pg07SVNI4-44" value="" style="line;html=1;strokeWidth=1;align=left;verticalAlign=middle;spacingTop=-1;spacingLeft=3;spacingRight=3;rotatable=0;labelPosition=right;points=[];portConstraint=eastwest;" vertex="1" parent="E2XUY7L-ip-pg07SVNI4-42">
          <mxGeometry y="220" width="160" height="8" as="geometry" />
        </mxCell>
        <mxCell id="E2XUY7L-ip-pg07SVNI4-45" value="newNodeAdapter&#xa;runInitTasks&#xa;printScreen&#xa;render&#xa;showExit&#xa;helpScreen&#xa;optionScreen&#xa;runPreEndTasks&#xa;resumeRendering&#xa;pauseRendering" style="text;align=left;verticalAlign=top;spacingLeft=4;spacingRight=4;overflow=hidden;rotatable=0;points=[[0,0.5],[1,0.5]];portConstraint=eastwest;fontStyle=0" vertex="1" parent="E2XUY7L-ip-pg07SVNI4-42">
          <mxGeometry y="228" width="160" height="162" as="geometry" />
        </mxCell>
        <mxCell id="E2XUY7L-ip-pg07SVNI4-46" value="" style="line;html=1;strokeWidth=1;align=left;verticalAlign=middle;spacingTop=-1;spacingLeft=3;spacingRight=3;rotatable=0;labelPosition=right;points=[];portConstraint=eastwest;" vertex="1" parent="E2XUY7L-ip-pg07SVNI4-42">
          <mxGeometry y="390" width="160" height="8" as="geometry" />
        </mxCell>
        <mxCell id="E2XUY7L-ip-pg07SVNI4-47" value="(Verse*)" style="text;html=1;align=center;verticalAlign=middle;resizable=0;points=[];autosize=1;" vertex="1" parent="E2XUY7L-ip-pg07SVNI4-42">
          <mxGeometry y="398" width="160" height="20" as="geometry" />
        </mxCell>
        <mxCell id="E2XUY7L-ip-pg07SVNI4-30" value="last_write_pos" style="swimlane;fontStyle=0;align=center;verticalAlign=top;childLayout=stackLayout;horizontal=1;startSize=26;horizontalStack=0;resizeParent=1;resizeLast=0;collapsible=1;marginBottom=0;rounded=0;shadow=0;strokeWidth=1;fillColor=#d5e8d4;strokeColor=#82b366;" vertex="1" parent="WIyWlLk6GJQsqaUBKTNV-1">
          <mxGeometry x="-1210" y="1080" width="160" height="80" as="geometry">
            <mxRectangle x="340" y="380" width="170" height="26" as="alternateBounds" />
          </mxGeometry>
        </mxCell>
        <mxCell id="E2XUY7L-ip-pg07SVNI4-31" value="n_row&#xa;n_col" style="text;align=left;verticalAlign=top;spacingLeft=4;spacingRight=4;overflow=hidden;rotatable=0;points=[[0,0.5],[1,0.5]];portConstraint=eastwest;" vertex="1" parent="E2XUY7L-ip-pg07SVNI4-30">
          <mxGeometry y="26" width="160" height="44" as="geometry" />
        </mxCell>
        <mxCell id="E2XUY7L-ip-pg07SVNI4-65" style="edgeStyle=orthogonalEdgeStyle;rounded=0;orthogonalLoop=1;jettySize=auto;html=1;exitX=1;exitY=0.5;exitDx=0;exitDy=0;entryX=0.5;entryY=0;entryDx=0;entryDy=0;" edge="1" parent="WIyWlLk6GJQsqaUBKTNV-1" source="E2XUY7L-ip-pg07SVNI4-43" target="E2XUY7L-ip-pg07SVNI4-0">
          <mxGeometry relative="1" as="geometry" />
        </mxCell>
        <mxCell id="E2XUY7L-ip-pg07SVNI4-74" style="edgeStyle=orthogonalEdgeStyle;rounded=0;orthogonalLoop=1;jettySize=auto;html=1;exitX=0;exitY=0;exitDx=0;exitDy=38.5;exitPerimeter=0;entryX=0.75;entryY=0;entryDx=0;entryDy=0;fontSize=13;" edge="1" parent="WIyWlLk6GJQsqaUBKTNV-1" source="E2XUY7L-ip-pg07SVNI4-66" target="E2XUY7L-ip-pg07SVNI4-57">
          <mxGeometry relative="1" as="geometry" />
        </mxCell>
        <mxCell id="E2XUY7L-ip-pg07SVNI4-75" style="edgeStyle=orthogonalEdgeStyle;rounded=0;orthogonalLoop=1;jettySize=auto;html=1;exitX=0;exitY=0;exitDx=0;exitDy=16.5;exitPerimeter=0;entryX=0.475;entryY=0.003;entryDx=0;entryDy=0;entryPerimeter=0;fontSize=13;" edge="1" parent="WIyWlLk6GJQsqaUBKTNV-1" source="E2XUY7L-ip-pg07SVNI4-66" target="E2XUY7L-ip-pg07SVNI4-68">
          <mxGeometry relative="1" as="geometry" />
        </mxCell>
        <mxCell id="E2XUY7L-ip-pg07SVNI4-66" value="main" style="shape=module;align=left;spacingLeft=20;align=center;verticalAlign=top;labelBackgroundColor=none;labelBorderColor=none;fillColor=#f8cecc;strokeColor=#b85450;fontSize=13;jettyWidth=27;jettyHeight=11;" vertex="1" parent="WIyWlLk6GJQsqaUBKTNV-1">
          <mxGeometry x="-940" y="20" width="120" height="50" as="geometry" />
        </mxCell>
        <mxCell id="E2XUY7L-ip-pg07SVNI4-68" value="Logger" style="swimlane;fontStyle=0;align=center;verticalAlign=top;childLayout=stackLayout;horizontal=1;startSize=26;horizontalStack=0;resizeParent=1;resizeLast=0;collapsible=1;marginBottom=0;rounded=0;shadow=0;strokeWidth=1;fillColor=#fff2cc;strokeColor=#d6b656;" vertex="1" parent="WIyWlLk6GJQsqaUBKTNV-1">
          <mxGeometry x="-1210" y="-80" width="160" height="250" as="geometry">
            <mxRectangle x="130" y="380" width="160" height="26" as="alternateBounds" />
          </mxGeometry>
        </mxCell>
        <mxCell id="E2XUY7L-ip-pg07SVNI4-69" value="var" style="text;align=left;verticalAlign=top;spacingLeft=4;spacingRight=4;overflow=hidden;rotatable=0;points=[[0,0.5],[1,0.5]];portConstraint=eastwest;rounded=0;shadow=0;html=0;" vertex="1" parent="E2XUY7L-ip-pg07SVNI4-68">
          <mxGeometry y="26" width="160" height="74" as="geometry" />
        </mxCell>
        <mxCell id="E2XUY7L-ip-pg07SVNI4-70" value="" style="line;html=1;strokeWidth=1;align=left;verticalAlign=middle;spacingTop=-1;spacingLeft=3;spacingRight=3;rotatable=0;labelPosition=right;points=[];portConstraint=eastwest;" vertex="1" parent="E2XUY7L-ip-pg07SVNI4-68">
          <mxGeometry y="100" width="160" height="8" as="geometry" />
        </mxCell>
        <mxCell id="E2XUY7L-ip-pg07SVNI4-71" value="func" style="text;align=left;verticalAlign=top;spacingLeft=4;spacingRight=4;overflow=hidden;rotatable=0;points=[[0,0.5],[1,0.5]];portConstraint=eastwest;fontStyle=0" vertex="1" parent="E2XUY7L-ip-pg07SVNI4-68">
          <mxGeometry y="108" width="160" height="90" as="geometry" />
        </mxCell>
        <mxCell id="E2XUY7L-ip-pg07SVNI4-72" value="" style="line;html=1;strokeWidth=1;align=left;verticalAlign=middle;spacingTop=-1;spacingLeft=3;spacingRight=3;rotatable=0;labelPosition=right;points=[];portConstraint=eastwest;" vertex="1" parent="E2XUY7L-ip-pg07SVNI4-68">
          <mxGeometry y="198" width="160" height="8" as="geometry" />
        </mxCell>
        <mxCell id="E2XUY7L-ip-pg07SVNI4-73" value="()" style="text;html=1;align=center;verticalAlign=middle;resizable=0;points=[];autosize=1;" vertex="1" parent="E2XUY7L-ip-pg07SVNI4-68">
          <mxGeometry y="206" width="160" height="20" as="geometry" />
        </mxCell>
      </root>
    </mxGraphModel>
  </diagram>
</mxfile>
